<?xml version="1.0" standalone="no"?>
<!DOCTYPE svg PUBLIC "-//W3C//DTD SVG 20010904//EN"
 "http://www.w3.org/TR/2001/REC-SVG-20010904/DTD/svg10.dtd">
<svg version="1.0" xmlns="http://www.w3.org/2000/svg"
 width="900.000000pt" height="900.000000pt" viewBox="0 0 900.000000 900.000000"
 preserveAspectRatio="xMidYMid meet">
<metadata>
Created by potrace 1.11, written by Peter Selinger 2001-2013
</metadata>
<g transform="translate(0.000000,900.000000) scale(0.100000,-0.100000)"
fill="#000000" stroke="none">
<path d="M0 4500 l0 -4500 4500 0 4500 0 0 4500 0 4500 -4500 0 -4500 0 0
-4500z m4900 3376 c0 -7 2321 -6719 2326 -6728 3 -4 -185 -8 -418 -8 l-423 1
-298 899 -298 900 -1294 0 -1294 0 -297 -900 -298 -900 -418 0 c-230 0 -418 3
-418 7 0 4 523 1521 1162 3370 l1163 3363 402 0 c222 0 403 -2 403 -4z"/>
<path d="M4316 6258 c-97 -287 -326 -968 -509 -1513 l-333 -990 514 -3 c282
-1 742 -1 1022 0 l508 3 -504 1499 c-278 824 -508 1505 -513 1513 -5 10 -67
-159 -185 -509z"/>
</g>
</svg>
